<mxfile host="app.diagrams.net" modified="2023-12-25T20:41:15.475Z" agent="Mozilla/5.0 (Windows NT 10.0; Win64; x64) AppleWebKit/537.36 (KHTML, like Gecko) Chrome/119.0.0.0 Safari/537.36 OPR/105.0.0.0 (Edition Yx GX)" etag="nlSw0f_svRoG1KudY7al" version="22.1.11" type="device">
  <diagram name="Страница — 1" id="yE4a2w7P6Te2NRvl9sHi">
    <mxGraphModel dx="1247" dy="1912" grid="1" gridSize="10" guides="1" tooltips="1" connect="1" arrows="1" fold="1" page="1" pageScale="1" pageWidth="827" pageHeight="1169" math="0" shadow="0">
      <root>
        <mxCell id="0" />
        <mxCell id="1" parent="0" />
        <mxCell id="HwdmJugbJNafQDYICJh7-26" value="" style="rounded=0;whiteSpace=wrap;html=1;" vertex="1" parent="1">
          <mxGeometry x="250" y="-80" width="680" height="1130" as="geometry" />
        </mxCell>
        <mxCell id="dxg-1aKYkxws1-xbYRtW-2" value="&amp;nbsp; &amp;nbsp; &amp;nbsp; &amp;nbsp; &amp;nbsp; &amp;nbsp; &amp;nbsp; &amp;nbsp;Работник кинотеатра" style="shape=umlActor;verticalLabelPosition=bottom;verticalAlign=top;html=1;" parent="1" vertex="1">
          <mxGeometry x="1020" y="350" width="30" height="60" as="geometry" />
        </mxCell>
        <mxCell id="dxg-1aKYkxws1-xbYRtW-6" value="Продать билет" style="ellipse;whiteSpace=wrap;html=1;" parent="1" vertex="1">
          <mxGeometry x="620" y="400" width="140" height="80" as="geometry" />
        </mxCell>
        <mxCell id="dxg-1aKYkxws1-xbYRtW-7" value="Выбрать фильм" style="ellipse;whiteSpace=wrap;html=1;" parent="1" vertex="1">
          <mxGeometry x="450" y="220" width="140" height="80" as="geometry" />
        </mxCell>
        <mxCell id="dxg-1aKYkxws1-xbYRtW-13" value="Показать свободные и проданные места для сеанса" style="ellipse;whiteSpace=wrap;html=1;" parent="1" vertex="1">
          <mxGeometry x="620" y="640" width="140" height="80" as="geometry" />
        </mxCell>
        <mxCell id="dxg-1aKYkxws1-xbYRtW-15" value="Просмотреть список фильмов&amp;nbsp;" style="ellipse;whiteSpace=wrap;html=1;" parent="1" vertex="1">
          <mxGeometry x="620" y="-80" width="140" height="80" as="geometry" />
        </mxCell>
        <mxCell id="dxg-1aKYkxws1-xbYRtW-19" value="Вернуть билет" style="ellipse;whiteSpace=wrap;html=1;" parent="1" vertex="1">
          <mxGeometry x="620" y="520" width="140" height="80" as="geometry" />
        </mxCell>
        <mxCell id="dxg-1aKYkxws1-xbYRtW-27" value="Расширение" style="endArrow=open;endSize=12;dashed=1;html=1;rounded=0;exitX=0.5;exitY=0;exitDx=0;exitDy=0;entryX=0.5;entryY=1;entryDx=0;entryDy=0;" parent="1" source="dxg-1aKYkxws1-xbYRtW-19" target="dxg-1aKYkxws1-xbYRtW-6" edge="1">
          <mxGeometry width="160" relative="1" as="geometry">
            <mxPoint x="334" y="440" as="sourcePoint" />
            <mxPoint x="494" y="440" as="targetPoint" />
          </mxGeometry>
        </mxCell>
        <mxCell id="dxg-1aKYkxws1-xbYRtW-29" value="Изменение описания фильмов и расписания" style="ellipse;whiteSpace=wrap;html=1;" parent="1" vertex="1">
          <mxGeometry x="620" y="760" width="140" height="80" as="geometry" />
        </mxCell>
        <mxCell id="HwdmJugbJNafQDYICJh7-24" value="Просмотреть расписание" style="ellipse;whiteSpace=wrap;html=1;" vertex="1" parent="1">
          <mxGeometry x="620" y="160" width="140" height="80" as="geometry" />
        </mxCell>
        <mxCell id="HwdmJugbJNafQDYICJh7-35" style="edgeStyle=orthogonalEdgeStyle;rounded=0;orthogonalLoop=1;jettySize=auto;html=1;exitX=0.5;exitY=1;exitDx=0;exitDy=0;" edge="1" parent="1" source="HwdmJugbJNafQDYICJh7-26" target="HwdmJugbJNafQDYICJh7-26">
          <mxGeometry relative="1" as="geometry" />
        </mxCell>
        <mxCell id="HwdmJugbJNafQDYICJh7-36" value="" style="endArrow=none;html=1;rounded=0;exitX=1;exitY=0;exitDx=0;exitDy=0;" edge="1" parent="1" source="dxg-1aKYkxws1-xbYRtW-13">
          <mxGeometry width="50" height="50" relative="1" as="geometry">
            <mxPoint x="780" y="270" as="sourcePoint" />
            <mxPoint x="1000" y="370" as="targetPoint" />
            <Array as="points" />
          </mxGeometry>
        </mxCell>
        <mxCell id="HwdmJugbJNafQDYICJh7-37" value="Добавить фильм" style="ellipse;whiteSpace=wrap;html=1;" vertex="1" parent="1">
          <mxGeometry x="620" y="50" width="140" height="80" as="geometry" />
        </mxCell>
        <mxCell id="HwdmJugbJNafQDYICJh7-38" value="" style="endArrow=none;html=1;rounded=0;exitX=1;exitY=1;exitDx=0;exitDy=0;" edge="1" parent="1" source="HwdmJugbJNafQDYICJh7-37">
          <mxGeometry width="50" height="50" relative="1" as="geometry">
            <mxPoint x="827" y="-170" as="sourcePoint" />
            <mxPoint x="1000" y="370" as="targetPoint" />
            <Array as="points" />
          </mxGeometry>
        </mxCell>
        <mxCell id="HwdmJugbJNafQDYICJh7-40" value="Добавить название фильма" style="ellipse;whiteSpace=wrap;html=1;" vertex="1" parent="1">
          <mxGeometry x="450" y="-20" width="140" height="80" as="geometry" />
        </mxCell>
        <mxCell id="HwdmJugbJNafQDYICJh7-41" value="Добавить описание фильма" style="ellipse;whiteSpace=wrap;html=1;" vertex="1" parent="1">
          <mxGeometry x="450" y="100" width="140" height="80" as="geometry" />
        </mxCell>
        <mxCell id="HwdmJugbJNafQDYICJh7-42" value="" style="endArrow=open;endSize=12;dashed=1;html=1;rounded=0;entryX=0;entryY=0;entryDx=0;entryDy=0;exitX=1;exitY=0.5;exitDx=0;exitDy=0;" edge="1" parent="1" source="HwdmJugbJNafQDYICJh7-40" target="HwdmJugbJNafQDYICJh7-37">
          <mxGeometry width="160" relative="1" as="geometry">
            <mxPoint x="549" y="-52" as="sourcePoint" />
            <mxPoint x="630" as="targetPoint" />
          </mxGeometry>
        </mxCell>
        <mxCell id="HwdmJugbJNafQDYICJh7-44" value="" style="endArrow=open;endSize=12;dashed=1;html=1;rounded=0;entryX=0;entryY=1;entryDx=0;entryDy=0;exitX=1;exitY=0.5;exitDx=0;exitDy=0;" edge="1" parent="1" source="HwdmJugbJNafQDYICJh7-41" target="HwdmJugbJNafQDYICJh7-37">
          <mxGeometry width="160" relative="1" as="geometry">
            <mxPoint x="579" y="-42" as="sourcePoint" />
            <mxPoint x="630" y="-10" as="targetPoint" />
          </mxGeometry>
        </mxCell>
        <mxCell id="HwdmJugbJNafQDYICJh7-45" value="" style="endArrow=none;html=1;rounded=0;entryX=1;entryY=0.5;entryDx=0;entryDy=0;" edge="1" parent="1" target="HwdmJugbJNafQDYICJh7-24">
          <mxGeometry width="50" height="50" relative="1" as="geometry">
            <mxPoint x="1000" y="370" as="sourcePoint" />
            <mxPoint x="770" y="120" as="targetPoint" />
          </mxGeometry>
        </mxCell>
        <mxCell id="HwdmJugbJNafQDYICJh7-46" value="Добавить сеанс" style="ellipse;whiteSpace=wrap;html=1;" vertex="1" parent="1">
          <mxGeometry x="620" y="280" width="140" height="80" as="geometry" />
        </mxCell>
        <mxCell id="HwdmJugbJNafQDYICJh7-47" value="Выбрать место" style="ellipse;whiteSpace=wrap;html=1;" vertex="1" parent="1">
          <mxGeometry x="450" y="460" width="140" height="80" as="geometry" />
        </mxCell>
        <mxCell id="HwdmJugbJNafQDYICJh7-48" value="Выбрать время" style="ellipse;whiteSpace=wrap;html=1;" vertex="1" parent="1">
          <mxGeometry x="450" y="340" width="140" height="80" as="geometry" />
        </mxCell>
        <mxCell id="HwdmJugbJNafQDYICJh7-49" value="" style="endArrow=open;endSize=12;dashed=1;html=1;rounded=0;entryX=0;entryY=0;entryDx=0;entryDy=0;exitX=1;exitY=0.5;exitDx=0;exitDy=0;" edge="1" parent="1" source="dxg-1aKYkxws1-xbYRtW-7" target="HwdmJugbJNafQDYICJh7-46">
          <mxGeometry width="160" relative="1" as="geometry">
            <mxPoint x="600" y="272" as="sourcePoint" />
            <mxPoint x="651" y="240" as="targetPoint" />
          </mxGeometry>
        </mxCell>
        <mxCell id="HwdmJugbJNafQDYICJh7-50" value="" style="endArrow=open;endSize=12;dashed=1;html=1;rounded=0;entryX=0;entryY=1;entryDx=0;entryDy=0;exitX=1;exitY=0.5;exitDx=0;exitDy=0;" edge="1" parent="1" source="HwdmJugbJNafQDYICJh7-48" target="HwdmJugbJNafQDYICJh7-46">
          <mxGeometry width="160" relative="1" as="geometry">
            <mxPoint x="620" y="396" as="sourcePoint" />
            <mxPoint x="671" y="364" as="targetPoint" />
          </mxGeometry>
        </mxCell>
        <mxCell id="HwdmJugbJNafQDYICJh7-51" value="" style="endArrow=none;html=1;rounded=0;exitX=1;exitY=0.5;exitDx=0;exitDy=0;" edge="1" parent="1" source="HwdmJugbJNafQDYICJh7-46">
          <mxGeometry width="50" height="50" relative="1" as="geometry">
            <mxPoint x="880" y="480" as="sourcePoint" />
            <mxPoint x="1000" y="370" as="targetPoint" />
          </mxGeometry>
        </mxCell>
        <mxCell id="HwdmJugbJNafQDYICJh7-52" value="" style="endArrow=none;html=1;rounded=0;exitX=1;exitY=0.5;exitDx=0;exitDy=0;" edge="1" parent="1" source="dxg-1aKYkxws1-xbYRtW-6">
          <mxGeometry width="50" height="50" relative="1" as="geometry">
            <mxPoint x="1100" y="555" as="sourcePoint" />
            <mxPoint x="1000" y="370" as="targetPoint" />
          </mxGeometry>
        </mxCell>
        <mxCell id="HwdmJugbJNafQDYICJh7-53" value="" style="endArrow=none;html=1;rounded=0;exitX=1;exitY=0.5;exitDx=0;exitDy=0;" edge="1" parent="1" source="dxg-1aKYkxws1-xbYRtW-19">
          <mxGeometry width="50" height="50" relative="1" as="geometry">
            <mxPoint x="1110" y="565" as="sourcePoint" />
            <mxPoint x="1000" y="370" as="targetPoint" />
          </mxGeometry>
        </mxCell>
        <mxCell id="HwdmJugbJNafQDYICJh7-55" value="" style="endArrow=open;endSize=12;dashed=1;html=1;rounded=0;entryX=0;entryY=1;entryDx=0;entryDy=0;exitX=1;exitY=0.5;exitDx=0;exitDy=0;" edge="1" parent="1" source="HwdmJugbJNafQDYICJh7-47" target="dxg-1aKYkxws1-xbYRtW-6">
          <mxGeometry width="160" relative="1" as="geometry">
            <mxPoint x="590" y="532" as="sourcePoint" />
            <mxPoint x="641" y="500" as="targetPoint" />
          </mxGeometry>
        </mxCell>
        <mxCell id="HwdmJugbJNafQDYICJh7-56" value="" style="endArrow=open;endSize=12;dashed=1;html=1;rounded=0;exitX=0;exitY=0.5;exitDx=0;exitDy=0;entryX=0;entryY=0.5;entryDx=0;entryDy=0;" edge="1" parent="1" source="dxg-1aKYkxws1-xbYRtW-7" target="dxg-1aKYkxws1-xbYRtW-6">
          <mxGeometry width="160" relative="1" as="geometry">
            <mxPoint x="388" y="322" as="sourcePoint" />
            <mxPoint x="430" y="560" as="targetPoint" />
            <Array as="points">
              <mxPoint x="400" y="260" />
              <mxPoint x="400" y="440" />
            </Array>
          </mxGeometry>
        </mxCell>
        <mxCell id="HwdmJugbJNafQDYICJh7-57" value="Выбрать билет" style="ellipse;whiteSpace=wrap;html=1;" vertex="1" parent="1">
          <mxGeometry x="450" y="580" width="140" height="80" as="geometry" />
        </mxCell>
        <mxCell id="HwdmJugbJNafQDYICJh7-58" value="" style="endArrow=open;endSize=12;dashed=1;html=1;rounded=0;entryX=0;entryY=1;entryDx=0;entryDy=0;" edge="1" parent="1" target="dxg-1aKYkxws1-xbYRtW-19">
          <mxGeometry width="160" relative="1" as="geometry">
            <mxPoint x="590" y="620" as="sourcePoint" />
            <mxPoint x="641" y="585" as="targetPoint" />
          </mxGeometry>
        </mxCell>
        <mxCell id="HwdmJugbJNafQDYICJh7-59" value="" style="endArrow=open;endSize=12;dashed=1;html=1;rounded=0;entryX=0;entryY=0.5;entryDx=0;entryDy=0;" edge="1" parent="1" target="dxg-1aKYkxws1-xbYRtW-13">
          <mxGeometry width="160" relative="1" as="geometry">
            <mxPoint x="400" y="440" as="sourcePoint" />
            <mxPoint x="431" y="500" as="targetPoint" />
            <Array as="points">
              <mxPoint x="400" y="680" />
            </Array>
          </mxGeometry>
        </mxCell>
        <mxCell id="HwdmJugbJNafQDYICJh7-60" value="" style="endArrow=none;html=1;rounded=0;exitX=1;exitY=1;exitDx=0;exitDy=0;" edge="1" parent="1" source="dxg-1aKYkxws1-xbYRtW-15">
          <mxGeometry width="50" height="50" relative="1" as="geometry">
            <mxPoint x="749" y="-2" as="sourcePoint" />
            <mxPoint x="1000" y="370" as="targetPoint" />
            <Array as="points" />
          </mxGeometry>
        </mxCell>
        <mxCell id="HwdmJugbJNafQDYICJh7-61" value="" style="endArrow=none;html=1;rounded=0;exitX=1;exitY=0;exitDx=0;exitDy=0;" edge="1" parent="1" source="dxg-1aKYkxws1-xbYRtW-29">
          <mxGeometry width="50" height="50" relative="1" as="geometry">
            <mxPoint x="749" y="662" as="sourcePoint" />
            <mxPoint x="1000" y="370" as="targetPoint" />
            <Array as="points" />
          </mxGeometry>
        </mxCell>
        <mxCell id="HwdmJugbJNafQDYICJh7-63" value="Изменить данные о фильме" style="ellipse;whiteSpace=wrap;html=1;" vertex="1" parent="1">
          <mxGeometry x="450" y="700" width="140" height="80" as="geometry" />
        </mxCell>
        <mxCell id="HwdmJugbJNafQDYICJh7-64" value="Удалить фильм из списка" style="ellipse;whiteSpace=wrap;html=1;" vertex="1" parent="1">
          <mxGeometry x="450" y="820" width="140" height="80" as="geometry" />
        </mxCell>
        <mxCell id="HwdmJugbJNafQDYICJh7-65" value="Изменить время сеанса" style="ellipse;whiteSpace=wrap;html=1;" vertex="1" parent="1">
          <mxGeometry x="450" y="940" width="140" height="80" as="geometry" />
        </mxCell>
        <mxCell id="HwdmJugbJNafQDYICJh7-66" value="Отменить сеанс" style="ellipse;whiteSpace=wrap;html=1;" vertex="1" parent="1">
          <mxGeometry x="620" y="940" width="140" height="80" as="geometry" />
        </mxCell>
        <mxCell id="HwdmJugbJNafQDYICJh7-67" value="Вернуться в главное меню" style="ellipse;whiteSpace=wrap;html=1;" vertex="1" parent="1">
          <mxGeometry x="790" y="940" width="140" height="80" as="geometry" />
        </mxCell>
        <mxCell id="HwdmJugbJNafQDYICJh7-68" value="" style="endArrow=open;endSize=12;dashed=1;html=1;rounded=0;entryX=0;entryY=0;entryDx=0;entryDy=0;exitX=1;exitY=0.5;exitDx=0;exitDy=0;" edge="1" parent="1" source="HwdmJugbJNafQDYICJh7-63" target="dxg-1aKYkxws1-xbYRtW-29">
          <mxGeometry width="160" relative="1" as="geometry">
            <mxPoint x="580" y="792" as="sourcePoint" />
            <mxPoint x="631" y="760" as="targetPoint" />
          </mxGeometry>
        </mxCell>
        <mxCell id="HwdmJugbJNafQDYICJh7-69" value="" style="endArrow=open;endSize=12;dashed=1;html=1;rounded=0;entryX=0;entryY=1;entryDx=0;entryDy=0;exitX=1;exitY=0.5;exitDx=0;exitDy=0;" edge="1" parent="1" source="HwdmJugbJNafQDYICJh7-64" target="dxg-1aKYkxws1-xbYRtW-29">
          <mxGeometry width="160" relative="1" as="geometry">
            <mxPoint x="620" y="850" as="sourcePoint" />
            <mxPoint x="671" y="882" as="targetPoint" />
          </mxGeometry>
        </mxCell>
        <mxCell id="HwdmJugbJNafQDYICJh7-70" value="" style="endArrow=open;endSize=12;dashed=1;html=1;rounded=0;entryX=0.28;entryY=0.942;entryDx=0;entryDy=0;exitX=1;exitY=0;exitDx=0;exitDy=0;entryPerimeter=0;" edge="1" parent="1" source="HwdmJugbJNafQDYICJh7-65" target="dxg-1aKYkxws1-xbYRtW-29">
          <mxGeometry width="160" relative="1" as="geometry">
            <mxPoint x="610" y="760" as="sourcePoint" />
            <mxPoint x="661" y="792" as="targetPoint" />
          </mxGeometry>
        </mxCell>
        <mxCell id="HwdmJugbJNafQDYICJh7-71" value="" style="endArrow=open;endSize=12;dashed=1;html=1;rounded=0;entryX=0.5;entryY=1;entryDx=0;entryDy=0;exitX=0.5;exitY=0;exitDx=0;exitDy=0;" edge="1" parent="1" source="HwdmJugbJNafQDYICJh7-66" target="dxg-1aKYkxws1-xbYRtW-29">
          <mxGeometry width="160" relative="1" as="geometry">
            <mxPoint x="620" y="770" as="sourcePoint" />
            <mxPoint x="671" y="802" as="targetPoint" />
          </mxGeometry>
        </mxCell>
        <mxCell id="HwdmJugbJNafQDYICJh7-72" value="" style="endArrow=open;endSize=12;dashed=1;html=1;rounded=0;entryX=0.721;entryY=0.968;entryDx=0;entryDy=0;exitX=0;exitY=0;exitDx=0;exitDy=0;entryPerimeter=0;" edge="1" parent="1" source="HwdmJugbJNafQDYICJh7-67" target="dxg-1aKYkxws1-xbYRtW-29">
          <mxGeometry width="160" relative="1" as="geometry">
            <mxPoint x="800" y="930" as="sourcePoint" />
            <mxPoint x="681" y="812" as="targetPoint" />
          </mxGeometry>
        </mxCell>
        <mxCell id="HwdmJugbJNafQDYICJh7-73" value="" style="endArrow=open;endSize=12;dashed=1;html=1;rounded=0;entryX=0;entryY=0.5;entryDx=0;entryDy=0;" edge="1" parent="1" target="HwdmJugbJNafQDYICJh7-63">
          <mxGeometry width="160" relative="1" as="geometry">
            <mxPoint x="400" y="680" as="sourcePoint" />
            <mxPoint x="620" y="920" as="targetPoint" />
            <Array as="points">
              <mxPoint x="400" y="740" />
            </Array>
          </mxGeometry>
        </mxCell>
        <mxCell id="HwdmJugbJNafQDYICJh7-74" value="" style="endArrow=open;endSize=12;dashed=1;html=1;rounded=0;exitX=0;exitY=0.5;exitDx=0;exitDy=0;entryX=0.073;entryY=0.748;entryDx=0;entryDy=0;entryPerimeter=0;" edge="1" parent="1" target="HwdmJugbJNafQDYICJh7-63">
          <mxGeometry width="160" relative="1" as="geometry">
            <mxPoint x="450" y="20" as="sourcePoint" />
            <mxPoint x="620" y="200" as="targetPoint" />
            <Array as="points">
              <mxPoint x="360" y="20" />
              <mxPoint x="360" y="760" />
            </Array>
          </mxGeometry>
        </mxCell>
        <mxCell id="HwdmJugbJNafQDYICJh7-75" value="" style="endArrow=open;endSize=12;dashed=1;html=1;rounded=0;exitX=0;exitY=0.5;exitDx=0;exitDy=0;entryX=0;entryY=1;entryDx=0;entryDy=0;" edge="1" parent="1" target="HwdmJugbJNafQDYICJh7-63">
          <mxGeometry width="160" relative="1" as="geometry">
            <mxPoint x="453" y="140" as="sourcePoint" />
            <mxPoint x="463" y="880" as="targetPoint" />
            <Array as="points">
              <mxPoint x="320" y="140" />
              <mxPoint x="320" y="800" />
              <mxPoint x="400" y="800" />
            </Array>
          </mxGeometry>
        </mxCell>
        <mxCell id="HwdmJugbJNafQDYICJh7-76" value="" style="endArrow=open;endSize=12;dashed=1;html=1;rounded=0;entryX=0;entryY=0.5;entryDx=0;entryDy=0;" edge="1" parent="1" target="HwdmJugbJNafQDYICJh7-64">
          <mxGeometry width="160" relative="1" as="geometry">
            <mxPoint x="400" y="740" as="sourcePoint" />
            <mxPoint x="620" y="870" as="targetPoint" />
            <Array as="points">
              <mxPoint x="400" y="860" />
            </Array>
          </mxGeometry>
        </mxCell>
        <mxCell id="HwdmJugbJNafQDYICJh7-77" value="" style="endArrow=open;endSize=12;dashed=1;html=1;rounded=0;entryX=0;entryY=0.5;entryDx=0;entryDy=0;" edge="1" parent="1" target="HwdmJugbJNafQDYICJh7-65">
          <mxGeometry width="160" relative="1" as="geometry">
            <mxPoint x="400" y="860" as="sourcePoint" />
            <mxPoint x="450" y="1000" as="targetPoint" />
            <Array as="points">
              <mxPoint x="400" y="980" />
            </Array>
          </mxGeometry>
        </mxCell>
        <mxCell id="HwdmJugbJNafQDYICJh7-78" value="" style="endArrow=open;endSize=12;dashed=1;html=1;rounded=0;entryX=0.074;entryY=0.754;entryDx=0;entryDy=0;exitX=0;exitY=0.5;exitDx=0;exitDy=0;entryPerimeter=0;" edge="1" parent="1" source="HwdmJugbJNafQDYICJh7-48" target="HwdmJugbJNafQDYICJh7-65">
          <mxGeometry width="160" relative="1" as="geometry">
            <mxPoint x="450" y="380" as="sourcePoint" />
            <mxPoint x="471" y="1008" as="targetPoint" />
            <Array as="points">
              <mxPoint x="280" y="380" />
              <mxPoint x="280" y="1000" />
              <mxPoint x="400" y="1000" />
            </Array>
          </mxGeometry>
        </mxCell>
        <mxCell id="HwdmJugbJNafQDYICJh7-79" value="" style="endArrow=open;endSize=12;dashed=1;html=1;rounded=0;" edge="1" parent="1" target="HwdmJugbJNafQDYICJh7-66">
          <mxGeometry width="160" relative="1" as="geometry">
            <mxPoint x="400" y="980" as="sourcePoint" />
            <mxPoint x="640" y="1040" as="targetPoint" />
            <Array as="points">
              <mxPoint x="400" y="1040" />
              <mxPoint x="560" y="1040" />
            </Array>
          </mxGeometry>
        </mxCell>
      </root>
    </mxGraphModel>
  </diagram>
</mxfile>
